<svg width="30" height="40" viewBox="0 0 30 40" fill="none" xmlns="http://www.w3.org/2000/svg">
<g clip-path="url(#clip0)">
<path d="M9.37523 5.625C9.37523 2.51836 11.8936 0 15.0002 0C18.1069 0 20.6252 2.51836 20.6252 5.625C20.6252 8.73156 18.1069 11.25 15.0002 11.25C11.8936 11.25 9.37523 8.73156 9.37523 5.625ZM29.268 5.73227C28.2917 4.75594 26.7087 4.75594 25.7325 5.73227L18.9647 12.5H11.0357L4.26797 5.73227C3.29172 4.75594 1.70875 4.75594 0.732498 5.73227C-0.24383 6.70859 -0.24383 8.29148 0.732498 9.26781L8.12523 16.6605V37.5C8.12523 38.8807 9.24453 40 10.6252 40H11.8752C13.2559 40 14.3752 38.8807 14.3752 37.5V28.75H15.6252V37.5C15.6252 38.8807 16.7445 40 18.1252 40H19.3752C20.7559 40 21.8752 38.8807 21.8752 37.5V16.6605L29.268 9.26773C30.2443 8.29141 30.2443 6.70859 29.268 5.73227Z" fill="black"/>
<path d="M17.9634 25H11.6284V23.7432L14.6182 20.5566C15.0286 20.1081 15.3312 19.7166 15.5259 19.3823C15.7248 19.048 15.8242 18.7306 15.8242 18.4302C15.8242 18.0197 15.7205 17.6981 15.5132 17.4653C15.3058 17.2284 15.0096 17.1099 14.6245 17.1099C14.2098 17.1099 13.8818 17.2537 13.6406 17.5415C13.4036 17.825 13.2852 18.1995 13.2852 18.665H11.4443C11.4443 18.1022 11.5776 17.5881 11.8442 17.1226C12.1151 16.6571 12.4959 16.2931 12.9868 16.0308C13.4777 15.7642 14.0342 15.6309 14.6562 15.6309C15.6084 15.6309 16.3468 15.8594 16.8716 16.3164C17.4006 16.7734 17.665 17.4188 17.665 18.2524C17.665 18.7095 17.5465 19.175 17.3096 19.6489C17.0726 20.1229 16.6663 20.6751 16.0908 21.3057L13.9897 23.521H17.9634V25Z" fill="white"/>
</g>
<defs>
<clipPath id="clip0">
<rect width="30" height="40" fill="white"/>
</clipPath>
</defs>
</svg>
