<svg width="30" height="40" viewBox="0 0 30 40" fill="none" xmlns="http://www.w3.org/2000/svg">
<g clip-path="url(#clip0)">
<path d="M9.37523 5.625C9.37523 2.51836 11.8936 0 15.0002 0C18.1069 0 20.6252 2.51836 20.6252 5.625C20.6252 8.73156 18.1069 11.25 15.0002 11.25C11.8936 11.25 9.37523 8.73156 9.37523 5.625ZM29.268 5.73227C28.2917 4.75594 26.7087 4.75594 25.7325 5.73227L18.9647 12.5H11.0357L4.26797 5.73227C3.29172 4.75594 1.70875 4.75594 0.732498 5.73227C-0.24383 6.70859 -0.24383 8.29148 0.732498 9.26781L8.12523 16.6605V37.5C8.12523 38.8807 9.24453 40 10.6252 40H11.8752C13.2559 40 14.3752 38.8807 14.3752 37.5V28.75H15.6252V37.5C15.6252 38.8807 16.7445 40 18.1252 40H19.3752C20.7559 40 21.8752 38.8807 21.8752 37.5V16.6605L29.268 9.26773C30.2443 8.29141 30.2443 6.70859 29.268 5.73227Z" fill="black"/>
<path d="M16.0845 25H14.25V17.9287L12.0601 18.6079V17.1162L15.8877 15.7451H16.0845V25Z" fill="white"/>
</g>
<defs>
<clipPath id="clip0">
<rect width="30" height="40" fill="white"/>
</clipPath>
</defs>
</svg>
