<svg width="40" height="40" viewBox="0 0 40 40" fill="none" xmlns="http://www.w3.org/2000/svg">
<path d="M33.75 17.5V7.5C33.75 7.16848 33.6183 6.85054 33.3839 6.61612C33.1495 6.3817 32.8315 6.25 32.5 6.25H7.5C7.16848 6.25 6.85054 6.3817 6.61612 6.61612C6.3817 6.85054 6.25 7.16848 6.25 7.5V17.5C5.25544 17.5 4.30161 17.8951 3.59835 18.5983C2.89509 19.3016 2.5 20.2554 2.5 21.25V33.75H5.3125V31.25H34.6875V33.75H37.5V21.25C37.5 20.2554 37.1049 19.3016 36.4016 18.5983C35.6984 17.8951 34.7446 17.5 33.75 17.5ZM18.75 17.5H9.375V15C9.375 14.6685 9.5067 14.3505 9.74112 14.1161C9.97554 13.8817 10.2935 13.75 10.625 13.75H17.5C17.8315 13.75 18.1495 13.8817 18.3839 14.1161C18.6183 14.3505 18.75 14.6685 18.75 15V17.5ZM21.25 15C21.25 14.6685 21.3817 14.3505 21.6161 14.1161C21.8505 13.8817 22.1685 13.75 22.5 13.75H29.375C29.7065 13.75 30.0245 13.8817 30.2589 14.1161C30.4933 14.3505 30.625 14.6685 30.625 15V17.5H21.25V15Z" fill="black"/>
</svg>
