<svg width="40" height="40" viewBox="0 0 40 40" fill="none" xmlns="http://www.w3.org/2000/svg">
<path d="M17.4783 7.32835C18.6479 7.52077 19.7111 8.12244 20.4783 9.02603C21.2454 9.92963 21.6666 11.0764 21.6667 12.2617V15.595H11.6667V12.2617C11.6667 10.5317 12.5467 9.00502 13.8833 8.10835C13.4033 7.68093 12.8099 7.4014 12.1747 7.30344C11.5395 7.20548 10.8895 7.29326 10.303 7.55621C9.71647 7.81917 9.21851 8.24608 8.86905 8.78552C8.5196 9.32497 8.33356 9.95394 8.33334 10.5967V20.5967H35C35.442 20.5967 35.866 20.7723 36.1785 21.0848C36.4911 21.3974 36.6667 21.8213 36.6667 22.2634C36.6667 22.7054 36.4911 23.1293 36.1785 23.4419C35.866 23.7544 35.442 23.93 35 23.93V25.5967C34.9999 27.6648 34.3588 29.6821 33.1649 31.3709C31.971 33.0596 30.283 34.3368 28.3333 35.0267V35.8334C28.3333 36.2754 28.1577 36.6993 27.8452 37.0119C27.5326 37.3244 27.1087 37.5 26.6667 37.5C26.2246 37.5 25.8007 37.3244 25.4882 37.0119C25.1756 36.6993 25 36.2754 25 35.8334V35.5967H15V35.8334C15 36.2754 14.8244 36.6993 14.5118 37.0119C14.1993 37.3244 13.7754 37.5 13.3333 37.5C12.8913 37.5 12.4674 37.3244 12.1548 37.0119C11.8423 36.6993 11.6667 36.2754 11.6667 35.8334V35.0267C9.71696 34.3368 8.02899 33.0596 6.8351 31.3709C5.64121 29.6821 5.00009 27.6648 5 25.5967V23.93C4.55798 23.93 4.13405 23.7544 3.82149 23.4419C3.50893 23.1293 3.33334 22.7054 3.33334 22.2634C3.33334 21.8213 3.50893 21.3974 3.82149 21.0848C4.13405 20.7723 4.55798 20.5967 5 20.5967V10.5967C4.99993 9.12249 5.48849 7.68985 6.38925 6.52287C7.29002 5.35588 8.55218 4.52037 9.97832 4.14702C11.4044 3.77368 12.9141 3.88356 14.2711 4.45949C15.6282 5.03541 16.7561 6.04489 17.4783 7.33002V7.32835Z" fill="black"/>
</svg>
