<svg width="40" height="40" viewBox="0 0 40 40" fill="none" xmlns="http://www.w3.org/2000/svg">
<path d="M29.9996 3.85004H30C31.5621 3.85004 32.8333 5.09774 32.8333 6.66671V33.3334C32.8333 34.8906 31.5572 36.1667 30 36.1667H10C8.44281 36.1667 7.16666 34.8906 7.16666 33.3334V6.66671C7.16666 5.09454 8.44107 3.83348 9.9998 3.83337C9.99987 3.83337 9.99993 3.83337 10 3.83337L29.9996 3.85004ZM30 33.8334H30.5V33.3334V18.3V17.8H30H10H9.5V18.3V33.3334V33.8334H10H30ZM30 15.5H30.5V15V6.66671V6.16671H30H10H9.5V6.66671V15V15.5H10H30ZM13.8333 8.83337H16.1667V12.8334H13.8333V8.83337ZM13.8333 20.5H16.1667V27.8334H13.8333V20.5Z" fill="black" stroke="black"/>
</svg>
