<svg width="40" height="40" viewBox="0 0 40 40" fill="none" xmlns="http://www.w3.org/2000/svg">
<path d="M13.8333 31.6667V31.1667H13.3333H5C3.44281 31.1667 2.16666 29.8905 2.16666 28.3333V8.33333C2.16666 6.77614 3.44281 5.5 5 5.5H35C36.557 5.5 37.8331 6.77591 37.8333 8.33292C37.8333 8.33306 37.8333 8.33319 37.8333 8.33333L37.8167 28.3329V28.3333C37.8167 29.8938 36.5539 31.1667 35 31.1667H26.6667H26.1667V31.6667V34.5H13.8333V31.6667ZM35 28.8333H35.5V28.3333V8.33333V7.83333H35H5H4.5V8.33333V28.3333V28.8333H5H35Z" fill="black" stroke="black"/>
</svg>
